#N canvas 0 0 1366 670 10;
#X declare -lib mrpeach;
#X obj 178 -91 tgl 15 0 empty empty empty 17 7 0 10 -262144 -1 -1 0
1;
#X msg 174 -21 \; pd dsp \$1;
#X msg 632 94 start;
#X msg 646 139 stop;
#X obj 723 167 readsf~ 2;
#X obj 736 416 dac~ 1 2;
#X obj 821 189 bng 15 250 50 0 empty empty empty 17 7 0 10 -262144
-1 -1;
#X obj 239 180 env~;
#X obj 402 189 env~;
#X obj 228 300 vu 15 120 empty empty -1 -8 0 10 -66577 -1 1 0;
#X obj 386 305 vu 15 120 empty empty -1 -8 0 10 -66577 -1 1 0;
#X obj 239 232 - 100;
#X obj 398 235 - 100;
#X obj 666 345 *~ 0.1;
#X obj 817 349 *~ 0.1;
#X obj 607 191 vsl 15 128 0 1 0 0 empty empty empty 0 -9 0 10 -262144
-1 -1 6350 1;
#X obj 905 198 vsl 15 128 0 1 0 0 empty empty empty 0 -9 0 10 -262144
-1 -1 6350 1;
#X text 927 253 Right channel volume;
#X text 624 248 Left channel volume;
#X msg 905 151 seek \$1;
#X obj 957 96 hsl 128 15 0 320 0 0 empty empty empty -2 -8 0 10 -262144
-1 -1 0 1;
#X msg 909 371 connect 127.0.0.1 12000;
#X obj 879 424 sendOSC;
#X floatatom 593 394 5 0 0 0 - - -;
#X floatatom 823 418 5 0 0 0 - - -;
#X obj 726 531 pack f f;
#X obj 715 612 print;
#X obj 747 465 bang;
#X msg 863 495 send /test \$1 \$2;
#X obj 176 -126 import mrpeach;
#X obj 451 463 udpreceive 12002;
#X obj 452 501 unpackOSC;
#X obj 451 541 routeOSC /limp;
#X obj 106 -153 receive pause;
#X obj 1 -138 receive play;
#X floatatom 878 124 5 0 0 0 - - -;
#X floatatom 738 -92 5 0 0 0 - - -;
#X msg 732 126 open \$1;
#X obj 865 -258 udpreceive 12003;
#X obj 865 -218 unpackOSC;
#X obj 859 -163 routeOSC /songid;
#X obj 388 606 send start;
#X obj 481 604 send pause;
#X obj 555 604 send play;
#X obj 1001 570 send prev;
#X obj 452 571 routeOSC /start /pause /play;
#X obj 604 24 receive start;
#X obj 471 55 udpreceive 12004;
#X obj 478 107 unpackOSC;
#X obj 502 150 routeOSC /volume;
#X obj 727 -56 bb_filebrowser;
#X obj 1026 -181 unpackOSC;
#X obj 993 -138 routeOSC /playlist;
#X obj 924 -114 bng 15 250 50 0 empty empty empty 17 7 0 10 -262144
-1 -1;
#X obj 987 -95 print;
#X obj 1044 -209 udpreceive 12002;
#X connect 0 0 1 0;
#X connect 2 0 4 0;
#X connect 3 0 4 0;
#X connect 4 0 7 0;
#X connect 4 0 13 0;
#X connect 4 1 8 0;
#X connect 4 1 14 0;
#X connect 4 2 6 0;
#X connect 7 0 11 0;
#X connect 8 0 12 0;
#X connect 11 0 9 0;
#X connect 12 0 10 0;
#X connect 13 0 5 0;
#X connect 14 0 5 1;
#X connect 15 0 13 1;
#X connect 15 0 23 0;
#X connect 16 0 14 1;
#X connect 16 0 24 0;
#X connect 19 0 4 0;
#X connect 20 0 19 0;
#X connect 21 0 22 0;
#X connect 23 0 25 0;
#X connect 24 0 27 0;
#X connect 24 0 25 1;
#X connect 25 0 28 0;
#X connect 25 0 26 0;
#X connect 27 0 25 0;
#X connect 28 0 22 0;
#X connect 30 0 31 0;
#X connect 31 0 32 0;
#X connect 32 0 45 0;
#X connect 33 0 0 0;
#X connect 34 0 0 0;
#X connect 36 0 50 0;
#X connect 37 0 4 0;
#X connect 38 0 39 0;
#X connect 39 0 40 0;
#X connect 40 0 36 0;
#X connect 45 0 41 0;
#X connect 45 1 42 0;
#X connect 45 2 43 0;
#X connect 46 0 2 0;
#X connect 47 0 48 0;
#X connect 48 0 49 0;
#X connect 49 0 15 0;
#X connect 49 0 16 0;
#X connect 50 0 37 0;
#X connect 50 1 35 0;
#X connect 51 0 52 0;
#X connect 52 0 53 0;
#X connect 52 0 54 0;
#X connect 53 0 50 1;
#X connect 55 0 51 0;
