#N canvas 683 0 667 670 10;
#X declare -lib mrpeach;
#X obj 440 45 tgl 15 0 empty empty empty 17 7 0 10 -262144 -1 -1 1
1;
#X msg 436 115 \; pd dsp \$1;
#X msg 632 94 start;
#X msg 634 132 stop;
#X obj 736 416 dac~ 1 2;
#X obj 815 203 bng 15 250 50 0 empty empty empty 17 7 0 10 -262144
-1 -1;
#X obj 239 180 env~;
#X obj 402 189 env~;
#X obj 228 300 vu 15 120 empty empty -1 -8 0 10 -66577 -1 1 0;
#X obj 386 305 vu 15 120 empty empty -1 -8 0 10 -66577 -1 1 0;
#X obj 239 232 - 100;
#X obj 398 235 - 100;
#X obj 666 345 *~ 0.1;
#X obj 817 349 *~ 0.1;
#X obj 607 191 vsl 15 128 0 1 0 0 empty empty empty 0 -9 0 10 -262144
-1 -1 5500 1;
#X obj 905 198 vsl 15 128 0 1 0 0 empty empty empty 0 -9 0 10 -262144
-1 -1 6200 1;
#X text 927 253 Right channel volume;
#X text 624 248 Left channel volume;
#X msg 875 157 seek \$1;
#X obj 987 86 hsl 128 15 0 320 0 0 empty empty empty -2 -8 0 10 -262144
-1 -1 0 1;
#X msg 909 371 connect 127.0.0.1 12000;
#X obj 879 424 sendOSC;
#X floatatom 593 394 5 0 0 0 - - -;
#X floatatom 823 418 5 0 0 0 - - -;
#X obj 726 531 pack f f;
#X obj 715 612 print;
#X obj 747 465 bang;
#X msg 863 495 send /test \$1 \$2;
#X obj 438 10 import mrpeach;
#X obj 451 463 udpreceive 12002;
#X obj 452 501 unpackOSC;
#X obj 451 541 routeOSC /limp;
#X obj 440 603 send pause;
#X obj 571 600 send next;
#X obj 641 599 send prev;
#X obj 535 -11 receive pause;
#X obj 452 571 routeOSC /pause /play /next /prev;
#X obj 501 600 send play;
#X obj 617 5 receive play;
#N canvas 724 160 450 300 pause 0;
#X obj 110 146 switch~;
#X obj 78 16 inlet;
#X obj 153 17 inlet;
#X floatatom 88 82 5 0 0 0 - - -;
#X floatatom 170 82 5 0 0 0 - - -;
#X connect 1 0 3 0;
#X connect 2 0 4 0;
#X connect 4 0 0 0;
#X restore 563 41 pd pause;
#X obj 399 602 print;
#X obj 730 -64 bb_filebrowser;
#X floatatom 875 121 5 0 0 0 - - -;
#X floatatom 738 -92 5 0 0 0 - - -;
#X msg 732 126 open \$1;
#X obj 730 174 oggread~;
#X floatatom 832 130 5 0 0 0 - - -;
#X msg 577 127 resume;
#X floatatom 1050 176 5 0 0 0 - - -;
#X connect 0 0 1 0;
#X connect 2 0 45 0;
#X connect 3 0 45 0;
#X connect 6 0 10 0;
#X connect 7 0 11 0;
#X connect 10 0 8 0;
#X connect 11 0 9 0;
#X connect 12 0 4 0;
#X connect 13 0 4 1;
#X connect 14 0 12 1;
#X connect 14 0 22 0;
#X connect 15 0 13 1;
#X connect 15 0 23 0;
#X connect 18 0 45 0;
#X connect 19 0 18 0;
#X connect 19 0 48 0;
#X connect 20 0 21 0;
#X connect 22 0 24 0;
#X connect 23 0 26 0;
#X connect 23 0 24 1;
#X connect 24 0 27 0;
#X connect 24 0 25 0;
#X connect 26 0 24 0;
#X connect 27 0 21 0;
#X connect 29 0 30 0;
#X connect 30 0 31 0;
#X connect 31 0 36 0;
#X connect 35 0 39 0;
#X connect 36 0 32 0;
#X connect 36 0 40 0;
#X connect 36 1 37 0;
#X connect 36 2 33 0;
#X connect 36 3 34 0;
#X connect 38 0 39 1;
#X connect 41 0 44 0;
#X connect 41 1 42 0;
#X connect 43 0 41 0;
#X connect 44 0 45 0;
#X connect 45 0 12 0;
#X connect 45 0 6 0;
#X connect 45 1 13 0;
#X connect 45 1 7 0;
#X connect 45 2 46 0;
#X connect 45 3 5 0;
