#N canvas -8 -8 1366 686 10;
#X declare -lib mrpeach;
#X obj 61 64 tgl 15 0 empty empty empty 17 7 0 10 -262144 -1 -1 0 1
;
#X msg 57 134 \; pd dsp \$1;
#X obj 322 70 openpanel;
#X msg 213 124 start;
#X msg 267 158 stop;
#X msg 329 101 open \$1;
#X obj 358 186 readsf~ 2;
#X obj 357 435 dac~ 1 2;
#X obj 442 208 bng 15 250 50 0 empty empty empty 17 7 0 10 -262144
-1 -1;
#X obj 330 31 bng 15 250 50 0 empty empty empty 17 7 0 10 -262144 -1
-1;
#X obj 35 243 env~;
#X obj 105 244 env~;
#X obj 22 313 vu 15 120 empty empty -1 -8 0 10 -66577 -1 1 0;
#X obj 98 316 vu 15 120 empty empty -1 -8 0 10 -66577 -1 1 0;
#X obj 17 277 - 100;
#X obj 88 278 - 100;
#X obj 287 364 *~ 0.1;
#X obj 438 368 *~ 0.1;
#X obj 228 210 vsl 15 128 0 1 0 0 empty empty empty 0 -9 0 10 -262144
-1 -1 0 1;
#X obj 526 230 vsl 15 128 0 1 0 0 empty empty empty 0 -9 0 10 -262144
-1 -1 0 1;
#X text 548 272 Right channel volume;
#X text 245 267 Left channel volume;
#X msg 440 141 seek \$1;
#X obj 444 99 hsl 128 15 0 320 0 0 empty empty empty -2 -8 0 10 -262144
-1 -1 0 1;
#X msg 530 390 connect 127.0.0.1 12000;
#X obj 500 443 sendOSC;
#X floatatom 214 413 5 0 0 0 - - -;
#X floatatom 444 437 5 0 0 0 - - -;
#X obj 347 550 pack f f;
#X obj 336 631 print;
#X obj 437 242 switch~;
#X obj 368 484 bang;
#X msg 484 514 send /test \$1 \$2;
#X obj 195 83 tgl 15 0 empty empty empty 17 7 0 10 -262144 -1 -1 0
1;
#X obj 59 29 import mrpeach;
#X obj 72 482 udpreceive 12002;
#X obj 73 520 unpackOSC;
#X obj 72 560 routeOSC /limp;
#X obj 61 622 send pause;
#X obj 192 619 send next;
#X obj 262 618 send prev;
#X obj 156 8 receive pause;
#X obj 73 590 routeOSC /pause /play /next /prev;
#X obj 122 619 send play;
#X obj 238 24 receive play;
#N canvas 724 160 450 300 pause 0;
#X obj 110 146 switch~;
#X msg 91 63 0;
#X msg 145 67 1;
#X obj 78 16 inlet;
#X obj 153 17 inlet;
#X connect 1 0 0 0;
#X connect 2 0 0 0;
#X connect 3 0 1 0;
#X connect 4 0 2 0;
#X restore 184 60 pd pause;
#X obj 20 621 print;
#X connect 0 0 1 0;
#X connect 2 0 5 0;
#X connect 3 0 6 0;
#X connect 4 0 6 0;
#X connect 5 0 6 0;
#X connect 6 0 10 0;
#X connect 6 0 16 0;
#X connect 6 1 11 0;
#X connect 6 1 17 0;
#X connect 6 2 8 0;
#X connect 6 2 30 0;
#X connect 9 0 2 0;
#X connect 10 0 14 0;
#X connect 11 0 15 0;
#X connect 14 0 12 0;
#X connect 15 0 13 0;
#X connect 16 0 7 0;
#X connect 17 0 7 1;
#X connect 18 0 16 1;
#X connect 18 0 26 0;
#X connect 19 0 17 1;
#X connect 19 0 27 0;
#X connect 22 0 6 0;
#X connect 23 0 22 0;
#X connect 24 0 25 0;
#X connect 26 0 28 0;
#X connect 27 0 31 0;
#X connect 27 0 28 1;
#X connect 28 0 32 0;
#X connect 28 0 29 0;
#X connect 31 0 28 0;
#X connect 32 0 25 0;
#X connect 33 0 3 0;
#X connect 35 0 36 0;
#X connect 36 0 37 0;
#X connect 37 0 42 0;
#X connect 41 0 45 0;
#X connect 42 0 38 0;
#X connect 42 0 46 0;
#X connect 42 1 43 0;
#X connect 42 2 39 0;
#X connect 42 3 40 0;
#X connect 44 0 45 1;
